<svg width="370" height="191" viewBox="0 0 370 191" xmlns="http://www.w3.org/2000/svg">
  <defs>
    <linearGradient x1="50.002%" y1="99.992%" x2="50.002%" y2="-.004%" id="a">
      <stop offset="0%"/>
      <stop stop-color="#555655" offset="100%"/>
    </linearGradient>
    <linearGradient x1="50%" y1="100.01%" x2="50%" y2=".001%" id="b">
      <stop stop-color="#555556" offset="0%"/>
      <stop stop-color="#FFF" offset="100%"/>
    </linearGradient>
    <linearGradient x1="49.999%" y1="99.997%" x2="49.999%" y2="-.01%" id="c">
      <stop stop-color="#FFF" offset="0%"/>
      <stop stop-color="#F6F6F5" offset="12.41%"/>
      <stop stop-color="#E5E4E3" offset="23.33%"/>
      <stop stop-color="#CFCCCC" offset="33.68%"/>
      <stop stop-color="#B2AFAF" offset="43.7%"/>
      <stop stop-color="#918E8E" offset="53.46%"/>
      <stop stop-color="#6F6C6C" offset="62.91%"/>
      <stop stop-color="#555556" offset="69.68%"/>
      <stop stop-color="#555556" offset="100%"/>
    </linearGradient>
  </defs>
  <g fill="none" fill-rule="evenodd">
    <path d="M185.017 2.108c1.41 0 2.821.266 3.9.797l174.576 87.28c6.075 3.037 6.075 8 0 11.038l-174.592 87.313c-1.08.53-2.49.796-3.901.796-1.41 0-2.822-.265-3.9-.796L6.44 101.206c-5.942-3.02-5.942-7.918 0-10.939L181.117 2.938c1.062-.548 2.473-.83 3.9-.83zm0-1.959c-1.777 0-3.47.366-4.781 1.013L5.561 88.492C1.975 90.316 0 92.89 0 95.728c0 2.855 1.975 5.411 5.544 7.237l174.675 87.346c1.312.647 3.005 1.012 4.781 1.012 1.776 0 3.47-.365 4.78-1.012l174.576-87.296c3.635-1.81 5.644-4.4 5.644-7.287 0-2.872-2.009-5.462-5.644-7.288L189.797 1.162c-1.311-.664-3.004-1.013-4.78-1.013z" fill="url(#a)" fill-rule="nonzero"/>
    <path d="M361.65 88.21L187.076.93c-2.141-1.08-5.66-1.08-7.802 0L4.615 88.259c-5.943 3.02-5.943 7.918 0 10.939l174.675 87.33c2.141 1.062 5.644 1.062 7.802 0L361.667 99.23c6.059-3.004 6.059-7.984-.016-11.022zm-16.78 10.522l-158.16 79.08c-1.941.962-5.128.962-7.054 0L21.413 98.682c-5.395-2.739-5.395-7.17 0-9.91L179.655 9.644c1.942-.963 5.113-.963 7.055 0l158.159 79.08c5.51 2.755 5.51 7.27 0 10.01z" transform="translate(1.826 1.992)" fill="url(#b)" fill-rule="nonzero"/>
    <path d="M327.605 79.943L169.446.863c-1.942-.963-5.129-.963-7.054 0L4.15 79.993c-5.395 2.738-5.395 7.17 0 9.91l158.242 79.128c1.942.963 5.112.963 7.054 0l158.16-79.079c5.51-2.755 5.51-7.27 0-10.01zm-7.884 7.768l-151.038 75.51c-1.527.764-4 .764-5.528 0L12.118 87.712c-3.038-1.527-3.038-4 0-5.528L163.172 6.656c1.527-.763 4-.763 5.527 0l151.022 75.527c3.037 1.528 3.037 4 0 5.528z" transform="translate(19.09 10.79)" fill="url(#c)" fill-rule="nonzero"/>
    <path d="M338.81 98.5l-151.038 75.51c-1.527.764-4 .764-5.527 0L31.207 98.501c-3.038-1.527-3.038-4 0-5.527l151.054-75.529c1.527-.764 4-.764 5.528 0l151.02 75.527c3.039 1.527 3.039 4 0 5.527z" fill="#EE3124" fill-rule="nonzero"/>
    <path d="M129.293 124.86c-.1.73-.465 1.428-1.03 1.926a3.14 3.14 0 0 1-2.041.764h-18.26a3.174 3.174 0 0 1-1.46-.366 2.96 2.96 0 0 1-1.113-1.012l-9.362-14.043v12.333c0 .813-.332 1.61-.896 2.191a3.145 3.145 0 0 1-2.191.897h-3.635l-15.67-7.835V74.232c0-.813.332-1.61.896-2.19a3.145 3.145 0 0 1 2.191-.897h16.732c.681 0 1.345.282 1.826.747.482.481.747 1.145.747 1.826v10.756l6.325-11.951c.216-.415.548-.764.946-.996a2.661 2.661 0 0 1 1.328-.365H123c.581 0 1.179.215 1.627.58.465.366.78.913.896 1.494a2.54 2.54 0 0 1-.249 1.71L113.01 98.102a.996.996 0 0 0-.117.531c.017.183.067.366.166.515l15.737 23.604c.415.598.597 1.362.498 2.108zm54.313-51.159v40.884c0 3.387-1.395 6.756-3.785 9.147-2.39 2.39-5.76 3.784-9.146 3.784h-27.439c-3.386 0-6.756-1.394-9.146-3.784-2.39-2.39-3.785-5.76-3.785-9.147V74.2c0-.813.332-1.61.896-2.19a3.145 3.145 0 0 1 2.192-.897h16.748c.68 0 1.345.282 1.826.747.482.481.747 1.145.747 1.826v33.48h8.5V74.2c0-.813.331-1.61.895-2.19a3.145 3.145 0 0 1 2.192-.897h16.748c.68 0 1.345.282 1.826.747.465.498.73 1.178.73 1.842zm119.532 1.428v41.2l-20.666 10.34a2.566 2.566 0 0 1-.399-.447l-10.872-15.537v13.76c0 .814-.332 1.61-.897 2.192a3.145 3.145 0 0 1-2.19.896h-15.19c-.813 0-1.61-.332-2.19-.896a3.161 3.161 0 0 1-.913-2.192v-50.23c0-.813.332-1.61.913-2.19a3.145 3.145 0 0 1 2.19-.897h16.334c.415 0 .83.1 1.196.3.365.182.68.464.93.812l10.407 14.874V74.232c0-.813.332-1.61.896-2.19a3.145 3.145 0 0 1 2.191-.897h10.259l8 3.984zm-59.741-1.428v50.744a3.12 3.12 0 0 1-.913 2.192 3.145 3.145 0 0 1-2.191.896h-16.218c-.813 0-1.61-.332-2.191-.896-.565-.581-.913-1.378-.913-2.192v-14.939h-8.499v14.94a3.12 3.12 0 0 1-.913 2.19 3.145 3.145 0 0 1-2.191.897H193.15c-.813 0-1.61-.332-2.19-.896a3.175 3.175 0 0 1-.897-2.192v-50.23c0-.813.332-1.61.896-2.19a3.175 3.175 0 0 1 2.191-.897h16.75c.663 0 1.344.282 1.825.747.481.482.764 1.146.764 1.826v15.454h8.498v-14.94c0-.813.332-1.61.913-2.19a3.145 3.145 0 0 1 2.192-.897h16.748c.68 0 1.345.282 1.826.747.448.482.73 1.162.73 1.826z" fill="#000" fill-rule="nonzero" opacity=".4"/>
    <path d="M126.82 111.116v-40.37c0-.813.331-1.61.912-2.19a3.103 3.103 0 0 1 2.191-.897h16.749c.68 0 1.345.282 1.826.747.481.481.747 1.145.747 1.826v33.48h8.499V70.748c0-.814.332-1.61.896-2.192a3.103 3.103 0 0 1 2.191-.896h16.75c.68 0 1.344.282 1.825.747.481.481.747 1.145.747 1.826v40.884c0 3.386-1.394 6.756-3.785 9.163-2.39 2.39-5.76 3.785-9.146 3.785H139.75c-3.386 0-6.756-1.395-9.146-3.785-2.39-2.407-3.785-5.777-3.785-9.163zm-56.671 9.86v-50.23c0-.813.332-1.61.913-2.19.564-.582 1.378-.897 2.191-.897h16.716c.68 0 1.344.282 1.826.747.48.481.763 1.145.763 1.826v10.756l6.324-11.951c.216-.415.548-.764.947-.996a2.502 2.502 0 0 1 1.328-.365h18.358c.598 0 1.179.215 1.627.58.448.366.78.914.897 1.478a2.54 2.54 0 0 1-.25 1.71l-11.768 23.654a.996.996 0 0 0-.117.531c.017.183.067.365.166.515l15.255 23.122c.415.615.581 1.378.498 2.125-.1.73-.465 1.428-1.029 1.926a3.173 3.173 0 0 1-2.042.763h-18.259a3.226 3.226 0 0 1-1.46-.365 2.96 2.96 0 0 1-1.113-1.012l-9.362-14.044v12.334a3.12 3.12 0 0 1-.913 2.19 3.09 3.09 0 0 1-2.191.914H73.22a3.12 3.12 0 0 1-2.191-.913c-.548-.598-.88-1.411-.88-2.208zm179.273 3.088h15.205a3.12 3.12 0 0 0 2.191-.913 3.09 3.09 0 0 0 .913-2.191v-13.761l10.873 15.537a2.97 2.97 0 0 0 1.112.963c.432.232.93.348 1.428.348h15.437a3.12 3.12 0 0 0 2.191-.913 3.09 3.09 0 0 0 .913-2.191V70.199a2.66 2.66 0 0 0-.747-1.826 2.588 2.588 0 0 0-1.826-.747H281.36c-.813 0-1.61.332-2.19.896-.565.581-.914 1.378-.914 2.191v12.881l-10.408-14.873a2.693 2.693 0 0 0-.913-.813c-.365-.2-.78-.299-1.195-.299h-16.333c-.814 0-1.61.332-2.192.897a3.12 3.12 0 0 0-.913 2.19v50.23c0 .814.332 1.61.913 2.192a3.082 3.082 0 0 0 2.208.946zm-62.828-53.317c0-.814.332-1.61.913-2.192a3.09 3.09 0 0 1 2.19-.913h16.75c.68 0 1.344.283 1.825.747.482.482.747 1.146.747 1.826V85.67h8.5V70.73a3.12 3.12 0 0 1 3.103-3.103h16.749c.68 0 1.345.282 1.826.747.481.481.747 1.145.747 1.826v50.744c0 .813-.332 1.61-.896 2.191a3.175 3.175 0 0 1-2.192.897h-16.234c-.813 0-1.61-.332-2.19-.897-.565-.58-.914-1.378-.914-2.191v-14.94h-8.499v14.94a3.12 3.12 0 0 1-.913 2.191 3.145 3.145 0 0 1-2.19.897H189.68c-.813 0-1.61-.332-2.191-.897-.564-.58-.913-1.378-.913-2.191V70.747h.017z" fill="#000" fill-rule="nonzero"/>
    <path d="M129.392 111.116v-41.15c0-.265.116-.53.299-.73.182-.2.465-.299.73-.299h16.483c.266 0 .532.116.73.299.183.183.3.465.3.73v33.996c0 .265.116.531.298.73.2.2.465.299.73.299h10.309c.266 0 .531-.116.73-.299.183-.199.3-.465.3-.73V69.966c0-.265.115-.53.298-.73.2-.2.465-.299.73-.299h16.483c.266 0 .532.116.73.299.183.183.3.465.3.73v41.15c0 2.722-1.113 5.412-3.038 7.337a10.477 10.477 0 0 1-7.337 3.038H139.75a10.507 10.507 0 0 1-7.337-3.038 10.533 10.533 0 0 1-3.02-7.337zm-56.67 9.329V69.95c0-.266.116-.531.299-.73.182-.2.464-.3.73-.3h16.483c.266 0 .531.117.73.3.183.182.3.464.3.73v18.94l9.992-18.874a1.86 1.86 0 0 1 .764-.797c.315-.199.697-.298 1.062-.298h16.865c.232 0 .465.083.647.232.183.15.316.365.366.598a.964.964 0 0 1-.1.68l-12.051 24.152a2.16 2.16 0 0 0-.233 1.063c.017.365.133.73.35 1.045l15.287 23.173c.133.2.2.465.166.714-.033.249-.15.481-.348.647a1.013 1.013 0 0 1-.681.25h-18.027c-.332 0-.68-.084-.98-.25a2.254 2.254 0 0 1-.746-.68l-12.334-18.509v18.392c0 .266-.116.548-.298.73-.2.2-.465.3-.73.3H73.75c-.266 0-.531-.117-.73-.3-.2-.165-.3-.43-.3-.713zm176.186 0c0 .266.116.548.298.73.2.2.465.3.73.3h15.455c.265 0 .53-.117.73-.3.183-.182.299-.464.299-.73v-19.57l14.126 20.168c.1.132.216.249.365.315.15.083.316.116.482.116h15.952c.265 0 .547-.116.73-.299.183-.182.299-.464.299-.73V69.95c0-.266-.116-.531-.3-.73a1.03 1.03 0 0 0-.73-.3h-15.453c-.266 0-.532.117-.73.3a1.073 1.073 0 0 0-.3.73v19.57l-14.11-20.168a.953.953 0 0 0-.364-.315.982.982 0 0 0-.482-.116h-15.952c-.265 0-.53.116-.73.298a1.073 1.073 0 0 0-.299.73v50.496h-.016zm-42.246-51.508H190.18c-.266 0-.531.116-.73.299a1.073 1.073 0 0 0-.3.73v50.496c0 .265.117.547.3.73.199.2.464.299.73.299h16.483c.266 0 .531-.116.73-.299.183-.183.3-.465.3-.73v-16.998h12.366v16.998c0 .265.116.547.299.73.199.2.464.299.73.299h16.483c.266 0 .531-.116.73-.299.2-.183.3-.465.3-.73V69.966c0-.265-.117-.53-.3-.73a.976.976 0 0 0-.73-.299h-16.483c-.266 0-.531.116-.73.299a1.073 1.073 0 0 0-.3.73v16.998h-12.366V69.966c0-.265-.116-.53-.298-.73a1.106 1.106 0 0 0-.73-.299z" fill="#FFF" fill-rule="nonzero"/>
  </g>
</svg>
