<?xml version="1.0" encoding="UTF-8"?>
<!-- Generator: Adobe Illustrator 19.1.0, SVG Export Plug-In . SVG Version: 6.00 Build 0)  -->
<svg version="1.1" id="Layer_1" xmlns="http://www.w3.org/2000/svg" xmlns:xlink="http://www.w3.org/1999/xlink" x="0px" y="0px" viewBox="0 0 240 60" style="enable-background:new 0 0 240 60;" xml:space="preserve">
<style type="text/css">
	.st0{fill:#169DD9;}
</style>
<g id="CStEdE_1_">
	<g>
		<path d="M239.8,49.7c-0.2,0.7-0.5,1.3-0.5,2.1c0,0.8-0.1,1.5-0.1,2.3c0,0.1,0,0.3,0,0.4c0,0.4,0.1,0.8,0.1,1.2    c0,0.4,0.1,0.9,0.3,1.3c0.1,0.2,0.1,0.5,0.1,0.7c0,0.4-0.3,0.5-0.7,0.3c-0.3-0.2-0.4-0.5-0.4-0.8c-0.2-1.6-0.3-3.2-0.2-4.8    c0-0.1,0-0.2,0-0.2c0.1-0.2,0-0.2-0.2-0.2c-1.1,0.2-1.9-0.3-2.6-1c-0.6-0.5-0.9-1.1-1.1-1.8c-0.1-0.4-0.1-0.9-0.2-1.3    c0-0.1,0.1-0.2,0.1-0.2c0.1-0.3,0.2-0.5,0.5-0.4c0.3,0.1,0.3,0.3,0.4,0.5c0,0.4,0.1,0.9,0.1,1.3c0.1,0.5,0.4,0.9,0.8,1.2    c0.5,0.4,1,0.7,1.7,0.7c0.4,0,0.5,0,0.5-0.5c0.1-0.9,0.2-1.7,0.3-2.6c0-0.2,0-0.4,0-0.6c-0.1-0.4,0.2-0.7,0.3-1.1    c0.1-0.3,0.4-0.1,0.7-0.2C239.8,47.2,239.8,48.5,239.8,49.7z"/>
		<path class="st0" d="M97,18.8c0-4.5,0-9.1,0-13.6c0-0.9-0.1-0.8,0.8-0.8c3.7,0,7.5,0,11.2,0c0.6,0,0.6-0.1,0.9,0.6    c1.1,3.6,2.3,7.1,3.4,10.6c0.3,1.1,0.7,2.1,1.1,3.2c0,0.1,0.1,0.2,0.1,0.2c0.1-0.1,0.1-0.1,0.2-0.2c0.3-0.9,0.6-1.9,0.9-2.8    c1.2-3.7,2.4-7.3,3.7-11c0.3-0.8,0.1-0.7,1-0.7c3.7,0,7.3,0,11,0c0,0,0.1,0,0.1,0c0.8,0,0.8,0,0.8,0.7c0,8.9,0,17.8,0,26.7    c0,0.3,0,0.6,0,0.9c0,0.5,0,0.5-0.5,0.5c-1,0-1.9,0-2.9,0c-2,0-4.1,0-6.1,0c-0.1,0-0.3,0-0.4,0c-0.2,0-0.3-0.1-0.3-0.3    c0-0.2,0-0.3,0-0.5c0-3.9,0-7.8,0-11.7c0-0.2,0-0.4-0.1-0.6c-0.1,0.2-0.2,0.4-0.3,0.6c-1,3.1-2,6.3-3,9.4    c-1.3,3.9-2.5,7.7-3.8,11.6c0,0,0,0.1,0,0.1c-0.1,0.2-0.2,0.3-0.3,0.5c-0.1-0.2-0.2-0.3-0.2-0.5c-0.9-2.6-1.7-5.1-2.6-7.7    c-0.9-2.7-1.8-5.4-2.7-8.1c-0.6-1.9-1.3-3.8-1.9-5.6c0-0.1,0-0.1-0.1-0.2c0-0.1-0.1-0.1-0.1-0.1c0,0-0.1,0.1-0.1,0.1    c0,0.2,0,0.3,0,0.5c0,3.8,0,7.6,0,11.5c0,0.1,0,0.3,0,0.4c0,0.6,0,0.6-0.6,0.6c-2.9,0-5.8,0-8.7,0c-0.7,0-0.7,0-0.7-0.7    C97,28,97,23.4,97,18.8C97,18.8,97,18.8,97,18.8z"/>
		<path class="st0" d="M192.2,18.8c0-4.6,0-9.1,0-13.7c0-0.8,0-0.7,0.7-0.7c2.9,0,5.9,0,8.8,0c0.5,0,0.7,0.1,0.9,0.5    c2.3,3.8,4.6,7.6,7,11.4c0.1,0.1,0.2,0.3,0.2,0.4c0,0,0.1,0,0.1,0.1c0,0,0.1-0.1,0.1-0.1c0-0.1,0-0.3,0-0.4c0-3.7,0-7.3,0-11    c0-0.1,0-0.2,0-0.3c0-0.4,0-0.5,0.5-0.5c0.7,0,1.4,0,2.1,0c2.2,0,4.5,0,6.7,0c0.1,0,0.3,0,0.4,0c0.2,0,0.3,0.1,0.3,0.4    c0,0.1,0,0.3,0,0.4c0,9.1,0,18.2,0,27.4c0,0.8,0,0.8-0.7,0.8c-2.9,0-5.7,0-8.6,0c-0.5,0-0.8-0.1-1-0.5c-2.4-3.9-4.9-7.7-7.3-11.6    c-0.1-0.1-0.2-0.3-0.3-0.4c0,0.2-0.1,0.3-0.1,0.5c0,3.7,0,7.5,0,11.2c0,0.8,0,0.8-0.8,0.8c-2.8,0-5.5,0-8.3,0    c-0.8,0-0.8,0-0.8-0.7C192.2,27.9,192.2,23.3,192.2,18.8z"/>
		<path class="st0" d="M135.6,18.9c0-4.6,0-9.1,0-13.7c0-0.8,0-0.8,0.8-0.8c3,0,6,0,9,0c0.1,0,0.2,0,0.3,0c0.4,0,0.4,0,0.4,0.5    c0,0.1,0,0.3,0,0.4c0,4.1,0,8.2,0,12.3c0,0.1,0,0.3,0,0.4c0,0.1,0.1,0.2,0.1,0.3c0.1-0.1,0.1-0.1,0.2-0.2c1.3-2.4,2.6-4.7,3.9-7.1    c1.1-2,2.2-4,3.3-6c0.2-0.4,0.5-0.6,1-0.6c3.3,0,6.6,0,9.9,0c0.2,0,0.4,0.1,0.6,0.1c-0.1,0.2-0.1,0.3-0.2,0.5    c-1.8,3.2-3.6,6.4-5.4,9.6c-0.7,1.2-1.3,2.3-2,3.5c-0.2,0.3-0.2,0.6,0,0.9c2.9,4.5,5.7,9,8.6,13.5c0.1,0.1,0.1,0.2,0.2,0.3    c0.1,0.1,0.1,0.3,0.2,0.4c-0.1,0-0.3,0-0.4,0c-3.6,0-7.1,0-10.7,0c-0.5,0-0.8-0.2-1.1-0.6c-2.5-4.5-5.1-9-7.7-13.5    c-0.1-0.2-0.2-0.3-0.3-0.4c0,0.2-0.1,0.3-0.1,0.5c0,4.5,0,8.9,0,13.4c0,0.9,0.1,0.8-0.8,0.8c-2.9,0-5.8,0-8.7,0c-1,0-1,0.1-1-0.9    C135.6,28,135.6,23.4,135.6,18.9z"/>
		<path class="st0" d="M72.1,18.7c0-4.5,0-9,0-13.5c0-0.1,0-0.3,0-0.4c0-0.5,0-0.5,0.5-0.5c1.5,0,3,0,4.5,0c5.4,0,10.8,0,16.2,0    c0.8,0,0.8,0,0.8,0.8c0,1.8,0,3.6,0,5.4c0,0.1,0,0.3,0,0.4c0,0.2-0.1,0.3-0.3,0.3c-0.2,0-0.3,0-0.5,0c-3.3,0-6.7,0-10,0    c-0.1,0-0.3,0-0.4,0c-0.2,0-0.3,0.1-0.3,0.3c0,1.1,0,2.2,0,3.3c0,0.2,0.1,0.3,0.3,0.3c0.1,0,0.3,0,0.4,0c3.3,0,6.7,0,10,0    c0.1,0,0.3,0,0.4,0c0.5,0,0.5,0,0.5,0.5c0,2,0,4.1,0,6.1c0,0.5,0,0.5-0.5,0.5c-2.4,0-4.8,0-7.1,0c-1.1,0-2.3,0-3.4,0    c-0.5,0-0.5,0-0.5,0.6c0,0.9,0,1.9,0,2.8c0,0.6,0,0.6,0.6,0.6c3.4,0,6.8,0,10.2,0c0.9,0,0.8,0,0.8,0.9c0,1.8,0,3.5,0,5.3    c0,0.1,0,0.3,0,0.4c0,0.3-0.1,0.4-0.4,0.4c-0.5,0-1,0-1.4,0c-6.5,0-13,0-19.5,0c-0.1,0-0.3,0-0.4,0c-0.2,0-0.3-0.1-0.3-0.3    c0-0.1,0-0.3,0-0.4C72.1,27.9,72.1,23.3,72.1,18.7z"/>
		<path class="st0" d="M167.3,18.7c0-4.5,0-9.1,0-13.6c0-0.1,0-0.2,0-0.3c0-0.4,0.1-0.4,0.5-0.5c0.1,0,0.2,0,0.3,0    c6.8,0,13.6,0,20.4,0c0.9,0,0.8,0,0.8,0.8c0,1.8,0,3.6,0,5.4c0,0.7,0,0.7-0.7,0.7c-3.2,0-6.5,0-9.7,0c-0.2,0-0.4,0-0.6,0    c-0.7,0-0.7,0-0.7,0.7c0,0.9,0,1.7,0,2.6c0,0.7,0,0.7,0.6,0.7c2.7,0,5.4,0,8.1,0c0.8,0,1.5,0,2.3,0c0.6,0,0.6,0,0.6,0.6    c0,2,0,3.9,0,5.9c0,0.6,0,0.6-0.6,0.6c-2.7,0-5.5,0-8.2,0c-0.8,0-1.5,0-2.3,0c-0.5,0-0.5,0-0.5,0.5c0,1,0,2,0,2.9    c0,0.5,0,0.5,0.6,0.5c2.9,0,5.8,0,8.6,0c0.7,0,1.3,0,2,0c0.4,0,0.4,0,0.4,0.4c0,2,0,4,0,6.1c0,0.4,0,0.5-0.5,0.5c-2,0-3.9,0-5.9,0    c-4.9,0-9.8,0-14.7,0c-0.8,0-0.8,0-0.8-0.9C167.3,27.8,167.3,23.3,167.3,18.7z"/>
		<path class="st0" d="M49.8,18.7c0-4.5,0-9,0-13.5c0-0.1,0-0.2,0-0.3c0-0.6,0-0.6,0.6-0.6c2.8,0,5.6,0,8.3,0c0.6,0,0.6,0,0.6,0.6    c0,6.8,0,13.7,0,20.5c0,1-0.1,0.8,0.8,0.8c2.8,0,5.7,0,8.5,0c0.1,0,0.2,0,0.3,0c0.3,0,0.4,0.1,0.4,0.4c0,0.5,0,0.9,0,1.4    c0,1.5,0,3,0,4.6c0,0.6,0,0.6-0.6,0.6c-4.7,0-9.4,0-14,0c-1.4,0-2.9,0-4.3,0c-0.6,0-0.6,0-0.6-0.6C49.8,28,49.8,23.4,49.8,18.7z"/>
		<path class="st0" d="M33.4,28c-1.6-0.2-3.3-0.3-4.9-0.5c-0.8-0.1-1.5-0.1-2.3-0.2c-0.3,0-0.5,0.1-0.5,0.4c0,0.3-0.3,0.4-0.5,0.4    c-0.2,0-0.3,0-0.5,0c-7.9,0-15.9,0-23.8,0c-0.2,0-0.4,0-0.6,0c-0.1,0-0.1-0.1-0.2-0.1c0.1,0,0.1-0.1,0.2-0.1    c1.2-0.5,2.4-1.1,3.7-1.6c2.1-1,4.1-2,6-3.3c2.7-1.8,4.9-3.9,6.5-6.8c0.7-1.2,1.4-2.4,2.2-3.6c1.5-2.3,3.6-3.7,6.1-4.5    c1.9-0.6,3.8-1,5.7-1.2c1.6-0.2,3.2-0.3,4.9-0.1c1.5,0.1,2.9,0.2,4.4,0.4c1.4,0.2,2.7,0.8,3.6,1.9c0.5,0.6,0.7,1.4,0.8,2.2    c0.1,0.5-0.1,1-0.4,1.5c-0.6,1-1.4,1.7-2.3,2.4c-2.7,2.2-5.6,4.1-8.8,5.6c-1.7,0.8-3.4,1.6-5.1,2.5c-0.2,0.1-0.4,0.2-0.5,0.3    c-0.1,0.1-0.1,0.2-0.1,0.4c0,0.1,0.2,0.2,0.3,0.2c0.5,0.1,0.9,0.1,1.4,0.2c1.9,0.2,3.8,0.3,5.7,0.5c0.5,0,0.5,0.1,0.4,0.5    c-0.1,0.8-0.2,1.5-0.3,2.3c-0.1,0.5,0,0.5-0.6,0.5C33.5,27.9,33.4,27.9,33.4,28C33.4,27.9,33.4,28,33.4,28z M24.6,21.1    C24.6,21.2,24.6,21.2,24.6,21.1c0.3,0,0.5-0.1,0.8-0.2c2.3-1.1,4.5-2.1,6.8-3.2c1.3-0.6,2.5-1.4,3.7-2.2c1.5-1,2.8-2.1,4.2-3.2    c0.3-0.2,0.6-0.5,0.8-0.8c0.5-0.6,0.3-1.4-0.5-1.7c-0.6-0.2-1.2-0.3-1.8-0.4c-1.4-0.1-2.8-0.1-4.2-0.1c-1.1,0-2.3,0-3.4,0.1    c-1.3,0-2.6,0.2-3.9,0.6c-1.6,0.5-3.2,1.1-4.5,2.2c-0.7,0.6-1.3,1.2-1.7,2c-1.1,1.7-2.2,3.4-3.3,5.1c-0.6,0.9-0.7,0.8,0.5,1    c1.6,0.2,3.2,0.4,4.8,0.6C23.4,21,24,21.1,24.6,21.1z M17.1,25.4C17.1,25.3,17.1,25.3,17.1,25.4c1.7,0,3.4-0.1,5.1,0    c1.1,0,1,0.1,1.2-1.1c0.1-0.4,0.1-0.4-0.3-0.5c-2.8-0.3-5.5-0.5-8.3-0.8c-0.2,0-0.4,0-0.6,0.2c-0.9,0.6-1.8,1.3-2.7,1.9    c-0.1,0.1-0.1,0.2-0.2,0.2c0.1,0,0.2,0.1,0.3,0.1C13.4,25.4,15.2,25.4,17.1,25.4z"/>
		<path class="st0" d="M23.1,36.1c-4.4-0.1-8.4-1.5-11.7-4.5c-0.8-0.7-1.4-1.5-2.1-2.2c-0.1-0.1-0.1-0.2-0.2-0.4    c0.1,0,0.3-0.1,0.4-0.1c0.9,0,1.8,0,2.6,0c0.3,0,0.5,0.1,0.7,0.3c1.2,1.2,2.6,2.2,4.2,2.9c1.2,0.5,2.4,0.9,3.6,1.1    c2.5,0.5,4.9,0.2,7.3-0.6c3.8-1.3,6.6-3.8,8.4-7.4c0.7-1.4,1.2-3,1.4-4.6c0.1-0.6,0.1-1.2,0.1-1.9c0-0.3,0.1-0.4,0.3-0.6    c0.7-0.4,1.3-0.8,2-1.3c0.2-0.1,0.3-0.1,0.3,0.2c0,1,0.1,1.9,0.1,2.9c-0.1,1.2-0.3,2.4-0.6,3.6c-0.8,2.6-2.1,5-3.9,7    c-1.8,1.9-3.9,3.4-6.3,4.3C27.6,35.7,25.4,36.1,23.1,36.1z"/>
		<path class="st0" d="M8.4,18.8c0.1,1,0.3,2.1,0.4,3.1c0,0.3,0.1,0.4-0.2,0.6c-0.6,0.3-1.2,0.6-1.9,0.9c-0.4,0.2-0.4,0.2-0.5-0.3    c-0.2-0.9-0.4-1.8-0.5-2.8c-0.2-2.1,0-4.1,0.5-6.1c1.1-3.9,3.3-7.1,6.6-9.5c1.8-1.3,3.9-2.3,6.1-2.8c2.6-0.6,5.2-0.7,7.8-0.1    c2.6,0.5,5,1.6,7.1,3.2c0.2,0.1,0.3,0.3,0.5,0.5c-0.2,0.1-0.5,0.1-0.7,0.1c-1,0.1-2.1,0.1-3.1,0.1c-0.4,0-0.7-0.1-1-0.3    c-1.4-0.7-2.9-1.2-4.5-1.3C23.7,4,22.3,4,20.8,4.3c-1.8,0.3-3.4,0.9-5,1.8c-3.5,2-5.7,5-6.8,8.9C8.7,16.2,8.5,17.5,8.4,18.8z"/>
		<path d="M96.9,48.8c0-0.8,0-1.6,0-2.4c0-0.5,0-0.5-0.5-0.4c-0.7,0.1-1.5,0.2-2.2,0.2c-0.1,0-0.3,0.1-0.4,0.1    c-0.2,0-0.3,0.2-0.3,0.3c0.1,0.7,0.2,1.4,0.3,2.2c0,0.1,0.1,0.2,0.1,0.3c0.1,0.7,0.1,1.4,0.2,2c0,0.2,0,0.3,0.1,0.5    c0,0.1,0.1,0.3,0.1,0.4c0,0.1-0.2,0.3-0.3,0.4c-0.1,0-0.3-0.1-0.4-0.2c-0.1-0.3-0.2-0.5-0.3-0.8c-0.1-0.3-0.1-0.7-0.2-1    c0-0.1,0-0.3-0.1-0.4c-0.1-0.7-0.1-1.5-0.2-2.2c0-0.3-0.1-0.7-0.2-1c0-0.1-0.1-0.2-0.2-0.2c-0.9,0-1.7-0.1-2.6,0.3    c-0.4,0.2-0.8,0.3-1.2,0c-0.1-0.1-0.3-0.3-0.3-0.4c-0.1-0.3,0-0.5,0.4-0.5c1.5-0.2,3-0.3,4.4-0.4c0.6,0,1.3-0.2,1.9-0.2    c0.3,0,0.5-0.1,0.8-0.1c0.2,0,0.4-0.1,0.7-0.1c0.3,0,0.4-0.2,0.4-0.5c0-0.2,0-0.4,0-0.6c0-0.2,0.2-0.4,0.4-0.3    c0.3,0,0.3,0.2,0.3,0.4c0,0.3,0,0.5,0.1,0.8c0.3,0,0.5,0,0.8-0.1c0.8-0.1,1.6-0.2,2.4-0.3c0.7-0.1,1.4-0.1,2.1-0.1    c0.3,0,0.6,0.2,0.5,0.4c-0.1,0.2-0.2,0.5-0.4,0.5c-0.3,0-0.7,0.4-1,0.1c-0.1-0.1-0.2,0-0.3,0c-0.8,0.1-1.6,0-2.4,0.2    c-0.4,0.1-0.9,0.1-1.4,0.2c-0.3,0-0.4,0.1-0.4,0.4c0,1.2,0,2.5,0,3.7c0,0,0,0.1,0.1,0.1c0,0,0.1-0.1,0.1-0.1    c0.3-0.4,0.7-0.8,1-1.2c0.3-0.3,0.6-0.6,1-0.8c0.4-0.3,1-0.4,1.5-0.4c0.5,0,0.8,0.3,1,0.8c0.2,0.5,0.3,1,0.4,1.5    c0,0.2,0,0.4,0,0.6c0,0.3-0.1,0.7-0.1,1c0,0.3-0.1,0.5-0.4,0.5c-0.3,0-0.4-0.1-0.5-0.4c0-0.2-0.1-0.4,0-0.7c0-0.6,0.1-1.1-0.1-1.7    c-0.1-0.2-0.2-0.3-0.3-0.5c-0.1-0.2-0.3-0.2-0.6-0.2c-1.2,0.4-1.9,1.2-2.5,2.2c-0.2,0.3-0.3,0.7-0.5,1c-0.1,0.2-0.3,0.3-0.5,0.4    c-0.2,0.1-0.4-0.1-0.4-0.3c0-0.1,0-0.3,0-0.4C96.9,50.4,96.9,49.6,96.9,48.8z"/>
		<path d="M129.5,59c-1,0.1-1.8-0.4-2.6-1c-0.3-0.2-0.6-0.6-0.7-1c-0.1-0.3-0.2-0.5-0.3-0.8c-0.1-0.2-0.1-0.5,0-0.7    c0-0.2,0.3-0.2,0.4,0c0.1,0.2,0.2,0.4,0.3,0.6c0.4,1.2,1.3,1.7,2.4,1.9c0.2,0,0.4,0,0.6,0c1.2,0.1,1.9-0.6,2.1-1.6    c0.2-1,0.5-2,0.5-3.1c-0.1-0.8-0.2-1.6-0.3-2.3c-0.1-0.4-0.1-0.9-0.3-1.2c-0.1-0.1-0.1-0.2-0.3,0c-0.3,0.5-0.7,1-1.2,1.3    c-0.3,0.2-0.6,0.4-0.9,0.5c-1,0.3-2.1-0.5-2.1-1.4c0-1.4,0.8-2.1,1.7-2.8c0.6-0.4,1.2-0.6,1.9-0.6c0.6,0,1.1,0.3,1.4,0.8    c0.3,0.3,0.3,0.6,0.2,1.1c-0.1,0.5,0,1,0.1,1.5c0.2,0.5,0.2,1,0.3,1.5c0.1,0.6,0.2,1.3,0.2,2c0,0.1,0,0.3,0,0.4    c-0.1,0.8-0.2,1.6-0.4,2.5c-0.2,0.7-0.5,1.3-0.9,1.8C131.1,58.9,130.4,59,129.5,59z M130.5,47.6c-1,0.1-1.7,0.6-2.3,1.4    c-0.2,0.2-0.3,0.6-0.3,0.9c-0.1,0.3,0.2,0.6,0.5,0.6c0.2,0,0.4,0,0.6-0.1c1-0.4,1.7-1.1,2.1-2.2c0.1-0.5,0.2-0.5-0.3-0.5    C130.6,47.7,130.6,47.7,130.5,47.6z"/>
		<path d="M202.2,48.3c0,0.6,0,1.2-0.1,1.9c0,0.1,0,0.2,0,0.2c0-0.1,0.1-0.1,0.1-0.2c0.1-0.4,0.2-0.9,0.2-1.3    c0.1-0.6,0.2-1.1,0.4-1.7c0.1-0.4,0.5-0.5,0.8-0.1c0.4,0.6,0.8,1.1,0.9,1.9c0,0.6,0.2,1.3,0.4,1.9c0,0.2,0.2,0.2,0.3,0.1    c0.4-0.5,0.9-1.1,1.2-1.6c0.3-0.5,0.5-1,0.9-1.4c0.3-0.4,0.8-0.7,1.2-1c0.2-0.2,0.5-0.1,0.7,0.1c0.3,0.4,0.6,0.8,0.9,1.2    c0.4,0.7,0.8,1.3,1.5,1.7c0.1,0.1,0.3,0.2,0.4,0.3c0.2,0.2,0.3,0.5,0.2,0.8c-0.1,0.3-0.4,0.3-0.7,0.2c-0.7-0.3-1.1-0.9-1.5-1.5    c-0.3-0.5-0.6-1-0.9-1.5c-0.2-0.4-0.4-0.4-0.7-0.1c-0.4,0.3-0.7,0.7-1,1.2c-0.4,0.7-0.8,1.2-1.3,1.8c-0.3,0.4-0.6,0.9-0.9,1.3    c-0.2,0.4-0.7,0.4-0.9,0c-0.2-0.4-0.3-0.9-0.4-1.3c0-0.5-0.2-1-0.3-1.5c-0.1-0.3-0.1-0.6-0.2-0.8c0-0.1-0.1-0.1-0.1-0.1    c0,0.1,0,0.1-0.1,0.2c-0.3,1.1-0.6,2.3-0.8,3.4c-0.1,0.3-0.1,0.7-0.4,0.9c-0.2,0.2-0.4,0.1-0.5-0.2c-0.1-0.4-0.1-0.7-0.2-1.1    c-0.1-0.7-0.1-1.3-0.2-2c0-0.3,0-0.5,0-0.8c0-0.3,0.1-0.6,0.1-0.9c0-0.1,0-0.2,0.1-0.2c0.1-0.1,0.2-0.2,0.3-0.2    c0.1,0,0.2,0.1,0.3,0.2C202.2,48,202.2,48.1,202.2,48.3C202.2,48.3,202.2,48.3,202.2,48.3z"/>
		<path d="M214.9,49.4c0,0.4,0,0.7,0,1.1c0,0.2,0,0.3,0.2,0.3c0.9,0,1.9,0.1,2.8-0.1c0.3-0.1,0.6-0.3,0.9-0.5    c0.3-0.3,0.4-0.5,0.1-0.7c-0.3-0.3-0.7-0.6-1.1-0.9c-0.5-0.3-1.1-0.5-1.6-0.7c-0.1-0.1-0.3-0.1-0.4-0.1c-0.4-0.1-0.8-0.1-1.2-0.1    c-0.5,0-1,0.1-1.5,0.2c-0.2,0-0.4,0.2-0.6,0.2c-0.2,0-0.4,0-0.5-0.2c-0.1-0.2-0.1-0.4,0.1-0.6c0.1-0.1,0.1-0.1,0.2-0.1    c0.6-0.1,1.3-0.4,1.9-0.4c0.6,0,1.2,0.2,1.8,0.3c0.2,0,0.4,0,0.6,0.1c1,0.3,2,0.8,2.7,1.5c0.7,0.6,0.6,1.7-0.1,2.3    c-0.6,0.5-1.3,0.7-2.2,0.7c-0.6,0-1.2,0.1-1.8,0.1c-0.3,0-0.3,0.2-0.2,0.4c0.3,0.9,0.2,1.8,0.4,2.8c0.2,1.1,0.1,2.1,0.3,3.2    c0,0.2-0.1,0.4-0.2,0.5c-0.1,0.1-0.3,0.2-0.4,0.2c-0.1,0-0.2-0.2-0.2-0.3c-0.1-0.2-0.1-0.5-0.1-0.7c0-1.3-0.1-2.6-0.4-3.8    c-0.1-0.6-0.1-1.2-0.2-1.8c0-0.4-0.1-0.4-0.4-0.4c-0.3,0-0.6,0-0.9-0.2c-0.2-0.2-0.2-0.4-0.1-0.6c0-0.1,0.2-0.2,0.4-0.3    c0.1,0,0.2,0,0.2,0c0.7,0,0.7,0,0.6-0.7c-0.1-0.6-0.1-1.1,0-1.7c0-0.3,0.1-0.4,0.4-0.5c0.2,0,0.4,0.2,0.5,0.5    C214.9,48.6,214.9,49,214.9,49.4C214.9,49.4,214.9,49.4,214.9,49.4z"/>
		<path d="M125.7,48.2c-0.2,0-0.4,0-0.6,0c-0.4,0-0.5,0.1-0.3,0.5c0.2,0.4,0.4,0.9,0.6,1.3c0.2,0.3,0.4,0.6,0.5,1    c0.1,0.2,0.1,0.5,0.1,0.8c0,0.1-0.2,0.2-0.4,0.3c0,0-0.2-0.1-0.2-0.2c-0.4-1-0.9-2-1.3-3c-0.2-0.4-0.3-0.5-0.8-0.4    c-0.9,0.2-1.8,0.3-2.7,0.5c-0.4,0.1-0.7,0.2-1.1,0.3c-0.4,0.1-0.6,0.3-0.7,0.6c-0.7,1.1-1.5,2-2.4,2.9c-0.1,0.1-0.2,0.2-0.3,0.3    c-0.2,0.2-0.3,0.1-0.4,0c-0.2-0.2-0.1-0.3,0-0.5c0.4-0.4,0.7-0.7,1.1-1.1c0.5-0.5,0.9-1.1,1.3-1.6c0.2-0.2,0.1-0.3-0.1-0.4    c-0.1,0-0.1,0-0.2-0.1c-0.1-0.1-0.2-0.2-0.2-0.4c0-0.1,0.1-0.2,0.2-0.2c0.2-0.1,0.4-0.2,0.5-0.1c0.6,0.1,0.8-0.3,1-0.7    c0.4-0.7,0.8-1.4,1.3-2c0.4-0.6,0.9-1.2,1.3-1.8c0.1-0.2,0.2-0.5,0.4-0.7c0.1-0.2,0.2-0.3,0.3-0.5c0.2-0.2,0.4-0.2,0.5,0.1    c0.1,0.4,0.3,0.8,0.3,1.2c0.1,1,0.4,2,0.8,3c0.1,0.3,0.3,0.4,0.6,0.4c0.4,0,0.9,0.1,1.3-0.2c0.1-0.1,0.3,0,0.4,0    c0.3,0,0.6,0.3,0.6,0.5c0,0.2-0.3,0.5-0.5,0.5C126.3,48.2,126,48.2,125.7,48.2C125.7,48.2,125.7,48.2,125.7,48.2z M119.9,48.3    c0.2,0,0.3,0,0.4,0c0.7-0.2,1.4-0.3,2.1-0.5c0.3-0.1,0.6-0.2,0.9-0.3c0,0,0.1-0.1,0.1-0.2c-0.2-0.7-0.4-1.4-0.5-2    c-0.1-0.3-0.1-0.6-0.2-0.8c-0.1-0.2-0.2-0.2-0.3,0c-0.6,0.8-1.1,1.6-1.7,2.4c-0.3,0.4-0.5,0.8-0.7,1.1    C119.8,48.2,119.8,48.4,119.9,48.3z"/>
		<path d="M222.1,45.8c1.8,0,3.2,0.8,4.2,2.4c0.3,0.4,0.4,1,0.5,1.4c0.1,0.2,0.1,0.3,0.2,0.5c0,0.1,0.1,0.2,0.2,0.2    c0.4,0,0.5,0.3,0.5,0.6c0,0.2-0.4,0.6-0.6,0.6c-0.9,0.3-1.8,0.6-2.7,0.8c-0.9,0.2-1.8,0.4-2.7,0.1c-0.3-0.1-0.6-0.3-0.8-0.5    c-0.5-0.6-0.5-1.3,0.3-1.9c0.2-0.1,0.4-0.3,0.6-0.4c0.9-0.3,1.9-0.5,2.9-0.4c0.4,0.1,0.8,0.2,1.2,0.4c0.2,0.1,0.2,0,0.2-0.1    c-0.4-1.3-1.2-2.3-2.5-2.6c-0.6-0.2-1.3-0.3-2-0.1c-0.3,0.1-0.5,0.1-0.7-0.2c-0.2-0.3-0.2-0.5,0.1-0.6c0.2-0.1,0.4-0.1,0.7-0.1    C221.7,45.8,221.9,45.8,222.1,45.8z M223.7,50.1C223.7,50.2,223.7,50.2,223.7,50.1c-0.3,0.1-0.6,0-0.9,0.1c-0.5,0.1-1,0.3-1.3,0.6    c-0.2,0.2-0.2,0.3,0,0.4c0.3,0.2,0.7,0.3,1,0.3c1.1,0.1,2.1-0.4,3.1-0.7c0.2,0,0.2-0.2,0.1-0.3c-0.1-0.1-0.2-0.2-0.4-0.2    C224.8,50.3,224.3,50.2,223.7,50.1z"/>
		<path d="M107.7,51.5c0,0,0.1,0,0.1,0c0.8,0,1.6,0,2.3-0.3c0.3-0.1,0.4,0,0.6,0.2c0.1,0.2,0.1,0.5-0.1,0.6    c-0.3,0.2-0.7,0.4-1.1,0.4c-0.7,0.1-1.5,0.1-2.2,0.1c-1.2,0-2.4-0.3-3.4-0.9c-0.7-0.4-1.1-1.4-0.8-2.2c0.1-0.1,0.2-0.3,0.3-0.3    c0.4,0,0.6-0.4,1-0.6c0.4-0.2,0.8-0.5,1.3-0.6c0.6-0.3,1.3-0.4,1.9-0.3c0.4,0,0.8,0.1,1.2,0.4c0.5,0.3,0.5,0.7,0,1    c-0.7,0.4-1.3,0.7-2.1,0.8c-0.8,0.1-1.6,0.2-2.4,0.4c-0.1,0-0.3,0.1-0.3,0.2c0,0.1,0.1,0.3,0.2,0.4c0.2,0.2,0.5,0.3,0.7,0.4    C105.7,51.3,106.7,51.6,107.7,51.5z M106.8,48.6C106.8,48.5,106.8,48.5,106.8,48.6c-0.3,0-0.6,0.1-0.8,0.2c0,0,0,0.1-0.1,0.1    c0,0,0.1,0,0.1,0c0.4-0.1,0.7-0.1,1.1-0.2c0,0,0,0,0,0c0,0,0-0.1-0.1-0.1C107.1,48.6,106.9,48.6,106.8,48.6z"/>
		<path d="M196.8,46.3c0.8,0,1.6,0.1,2.3,0.5c0.7,0.4,1.1,1.1,1.4,1.9c0.2,0.5-0.2,1-0.4,1.4c-0.7,1.1-1.7,1.7-2.9,1.9    c-0.7,0.1-1.5,0.2-2.3,0c-0.7-0.2-1.4-0.6-1.7-1.4c-0.1-0.3-0.2-0.6-0.3-0.9c-0.1-1.4,0.7-2.7,2.2-3.1    C195.6,46.4,196.2,46.3,196.8,46.3z M196.2,51.1c0.5,0.1,1.1-0.1,1.8-0.4c0.7-0.3,1.3-0.8,1.6-1.5c0.1-0.2,0.1-0.5,0-0.7    c-0.1-0.4-0.4-0.8-0.8-1.1c-0.6-0.3-1.2-0.4-1.8-0.3c-0.3,0-0.5,0.3-0.8,0.3c-0.3,0-0.6-0.1-0.9,0c-0.2,0.1-0.4,0.1-0.1,0.3    c0.2,0.1,0.2,0.3,0.2,0.4c-0.1,0.1-0.3,0.2-0.4,0.2c-0.2,0-0.3-0.1-0.5-0.1c-0.3-0.1-0.5-0.1-0.6,0.2c-0.3,0.9-0.2,1.8,0.8,2.4    C195.1,51.1,195.6,51.1,196.2,51.1z"/>
		<path d="M142,46.3c0.9,0,1.6-0.1,2.3,0.3c0.7,0.4,1.1,0.9,1.4,1.6c0.3,0.6,0,1.2-0.3,1.7c-0.6,0.8-1.4,1.4-2.4,1.7    c-0.5,0.1-1,0.2-1.4,0.3c-1,0-1.9-0.1-2.6-0.9c-0.7-0.8-0.8-1.7-0.5-2.6c0.4-1.5,1.8-2.1,3.1-2.2C141.7,46.3,141.9,46.3,142,46.3z     M141.3,51.1c0.7,0.1,1.3-0.1,1.9-0.3c0.5-0.2,1-0.5,1.3-1c0.6-0.8,0.4-1.7-0.4-2.2c-0.6-0.4-1.3-0.4-1.9-0.3    c-0.3,0-0.5,0.3-0.8,0.3c-0.3,0-0.6-0.1-0.8,0c-0.2,0.1-0.2,0.1-0.1,0.3c0.2,0.1,0.3,0.3,0.1,0.5c-0.1,0.1-0.3,0.1-0.5,0.2    c-0.1,0-0.2-0.1-0.3-0.1c-0.2-0.2-0.4-0.1-0.5,0.1c-0.4,0.5-0.3,1.8,0.4,2.3C140.2,51,140.8,51.2,141.3,51.1z"/>
		<path d="M170.8,48.9c-0.1,0.3-0.3,0.8-0.5,1.1c-0.6,0.9-1.3,1.5-2.4,1.7c-0.5,0.1-1,0.3-1.6,0.3c-0.7,0-1.4-0.1-2-0.4    c-0.5-0.3-0.8-0.7-1-1.2c-0.5-1.4,0-3,1.4-3.7c0.6-0.3,1.2-0.4,1.9-0.4c0.3,0,0.7,0,1,0c1.2,0,2.1,0.5,2.8,1.6    C170.7,48.2,170.7,48.5,170.8,48.9z M166.4,51.2c0.7,0,1.2-0.2,1.8-0.4c0.7-0.3,1.2-0.7,1.6-1.4c0.2-0.3,0.2-0.7,0-1.1    c-0.4-0.8-1.1-1.1-1.9-1.1c-0.4,0-0.8-0.1-1.1,0.2c-0.4,0.4-0.8-0.1-1.1,0.1c0,0,0,0-0.1,0c-0.2,0.1-0.2,0.1-0.1,0.3    c0.1,0.1,0.2,0.3,0.2,0.3c-0.1,0.1-0.2,0.2-0.4,0.3c-0.1,0-0.3,0-0.5-0.1c-0.4-0.2-0.5-0.1-0.6,0.3c-0.1,0.3-0.1,0.6-0.1,0.9    c-0.1,0.7,0.3,1.2,1,1.4C165.5,51.1,166,51.1,166.4,51.2z"/>
		<path d="M189.1,45.7c-1.2,0-2.1,0.4-2.9,1.2c-0.6,0.6-1.2,1.1-1.8,1.6c-0.3,0.3-0.6,0.6-0.8,1c-0.5,0.6-0.3,1.6,0.7,1.7    c0.4,0,0.9,0.2,1.3,0.3c0.2,0,0.4,0.1,0.6,0.1c0.7-0.2,1.4,0,2-0.3c0.3-0.1,0.7-0.1,1-0.2c0.7-0.2,1.3-0.3,2-0.5    c0.3-0.1,0.5-0.2,0.7-0.4c0.3-0.2,0.5-0.1,0.6,0.1c0.1,0.2,0.1,0.4-0.2,0.6c-0.2,0.1-0.3,0.2-0.5,0.2c-0.5,0.2-0.9,0.3-1.4,0.4    c-0.7,0.2-1.4,0.3-2,0.5c-0.3,0.1-0.7,0.1-1,0.2c-0.8,0-1.6,0.2-2.4,0c-0.5-0.1-1.1-0.2-1.6-0.4c-0.7-0.3-1.1-1.4-0.8-2.1    c0.3-0.9,1.1-1.5,1.7-2.2c0.2-0.2,0.4-0.4,0.6-0.6c0.6-0.5,1.2-1,1.8-1.5c0.2-0.2,0.4-0.2,0.6-0.4c0.6-0.4,1.4-0.4,2.1-0.3    c0.2,0,0.4,0.1,0.5,0.2c0.1,0.1,0.2,0.3,0.2,0.4c0,0.2-0.3,0.2-0.4,0.2C189.5,45.7,189.3,45.7,189.1,45.7z"/>
		<path d="M173,46c1-0.2,1.7,0.5,2.5,1.1c0.7,0.5,1.1,1.3,1.4,2.1c0.3,0.7,0.6,1.5,0.8,2.3c0,0.1,0.1,0.3,0.1,0.4    c0,0.1-0.1,0.4-0.2,0.4c-0.1,0-0.3,0-0.4-0.1c-0.4-0.3-0.4-0.7-0.6-1.1c-0.4-0.9-0.8-1.9-1.3-2.8c-0.4-0.8-1.1-1.2-2-1.3    c-0.3,0-0.3,0.1-0.4,0.3c-0.2,1.1-0.2,2.2-0.2,3.3c0,0.6-0.1,1.2-0.1,1.7c0,0.3-0.2,0.6-0.5,0.5c-0.2,0-0.5-0.4-0.5-0.6    c0.1-1.1,0.2-2.1,0.3-3.2c0-0.6,0-1.2,0-1.7c0-0.1-0.1-0.2-0.1-0.3c-0.3-0.5,0-1,0.5-1C172.5,46,172.7,46,173,46z"/>
		<path d="M229.4,51.8c0,0.4,0,0.8,0,1.3c0,0.1,0,0.3-0.1,0.4c-0.1,0.3-0.3,0.5-0.5,0.5c-0.2,0-0.4-0.4-0.5-0.6c0-0.1,0-0.2,0-0.2    c0.1-1.1,0.2-2.2,0.2-3.3c0-0.4,0-0.8,0-1.1c0-0.2,0-0.4-0.2-0.7c-0.3-0.4,0-0.9,0.5-0.9c0.5,0,1,0,1.4,0c0.2,0,0.4,0.1,0.6,0.2    c1.3,0.7,2.3,1.8,2.7,3.2c0.2,0.6,0.5,1.2,0.7,1.9c0.1,0.2,0.1,0.4,0.1,0.6c0,0.3-0.3,0.4-0.5,0.2c-0.2-0.2-0.4-0.4-0.5-0.7    c-0.3-0.6-0.5-1.3-0.8-1.9c-0.2-0.5-0.5-1.1-0.8-1.5c-0.3-0.6-0.9-0.9-1.5-1.1c-0.1,0-0.2,0-0.2,0c-0.6-0.1-0.6-0.1-0.6,0.4    c0,0.5-0.1,1-0.2,1.5C229.4,50.6,229.5,51.2,229.4,51.8C229.5,51.8,229.4,51.8,229.4,51.8z"/>
		<path d="M157.3,51.7c-0.3,0-0.6,0-0.9,0c-0.2,0-0.3,0-0.5-0.1c-0.3-0.1-0.5-0.6-0.4-0.8c0.1-0.2,0.4-0.3,0.7-0.2    c0.8,0.3,1.6,0.1,2.3,0.1c0,0,0.1,0,0.1,0c0.2-0.1,0.4-0.2,0.5-0.4c-0.1-0.1-0.2-0.3-0.3-0.4c-0.7-0.5-1.4-0.9-2.1-1.4    c-0.4-0.3-0.7-0.5-1.1-0.8c-0.2-0.1-0.3-0.4-0.3-0.6c-0.1-0.4-0.1-0.6,0.3-0.8c0.4-0.2,0.7-0.5,1.1-0.6c0.5-0.2,0.9-0.4,1.4-0.4    c0.3,0,0.7,0,1,0.1c0.2,0,0.3,0.2,0.4,0.5c0,0.4-0.2,0.6-0.5,0.5c-0.8-0.3-1.5,0.2-2.3,0.4c-0.5,0.1-0.5,0.4-0.1,0.7    c0.5,0.4,1,0.6,1.4,1c0.5,0.4,1.1,0.8,1.6,1.2c0.2,0.2,0.5,0.5,0.5,0.8c0,0.4-0.2,0.7-0.5,0.9c-0.4,0.3-0.9,0.4-1.5,0.4    C157.9,51.7,157.6,51.7,157.3,51.7C157.3,51.7,157.3,51.7,157.3,51.7z"/>
		<path d="M151.9,45.3c-0.1,0.3-0.1,0.7-0.2,1c-0.3,0.8-0.3,1.5-0.4,2.3c-0.1,0.5-0.3,1.1-0.4,1.6c-0.1,0.3-0.2,0.5-0.3,0.8    c-0.2,0.5-0.6,0.7-1.1,0.5c-0.6-0.3-1-0.7-1.4-1.2c-0.8-0.9-1.2-2-1.5-3.2c0-0.1-0.1-0.3,0-0.4c0.1-0.1,0.2-0.3,0.4-0.3    c0.1,0,0.4,0.1,0.4,0.3c0.2,0.3,0.3,0.7,0.4,1c0.3,1,0.9,1.7,1.6,2.4c0.3,0.3,0.7,0.2,0.8-0.3c0.2-0.8,0.5-1.5,0.5-2.3    c0-0.3,0.1-0.7,0.2-1c0.1-0.5,0.2-1.1,0.3-1.6c0,0,0-0.1,0-0.1c0.1-0.1,0.2-0.3,0.4-0.4c0.2,0,0.4,0.2,0.4,0.4    C151.9,45,151.9,45.2,151.9,45.3C151.9,45.3,151.9,45.3,151.9,45.3z"/>
		<path d="M135.1,50.2c0,0.5,0,1,0.1,1.5c0,0.3,0.1,0.5-0.2,0.6c-0.3,0.1-0.6,0-0.7-0.3c-0.1-0.2-0.1-0.4-0.2-0.7    c-0.1-0.9-0.1-1.8-0.2-2.7c0-0.5,0-0.9,0.6-1c0.1,0,0.2-0.2,0.3-0.4c0.4-0.7,1-1.2,1.7-1.6c0.6-0.3,1.2-0.6,1.9-0.8    c0.3-0.1,0.6-0.2,0.9-0.3c0.1,0,0.2-0.1,0.4-0.1c0.5-0.1,0.7,0.1,0.6,0.6c-0.1,0.2-0.3,0.4-0.4,0.6c-0.2,0.2-0.4,0.1-0.7,0    c-0.1,0-0.2,0-0.3,0c-1.2,0.3-2.3,1-3.2,1.9c-0.1,0.1-0.1,0.2-0.1,0.3C135.2,48.5,135,49.4,135.1,50.2z"/>
		<path d="M161.2,49.9c0-0.4,0-0.7,0-1.1c0-0.1,0-0.3,0-0.4c0.1-0.1,0.2-0.3,0.4-0.3c0.1,0,0.3,0.1,0.3,0.2c0.1,0.3,0.2,0.7,0.1,1    c0,0.3,0,0.5,0,0.7c0.1,0.5,0.1,1.1,0.2,1.6c0,0.2-0.3,0.5-0.5,0.5c-0.3,0-0.4-0.2-0.5-0.4C161.2,51.2,161.2,50.6,161.2,49.9    C161.1,49.9,161.1,49.9,161.2,49.9z"/>
		<path d="M152.9,50c0-0.4,0-0.9,0-1.3c0-0.2,0.1-0.5,0.3-0.5c0.2,0,0.5,0.2,0.5,0.5c0,0,0,0,0,0.1c0,0.9,0.1,1.8,0.1,2.7    c0,0.1,0,0.3,0,0.4c0,0.2-0.2,0.4-0.4,0.4c-0.1,0-0.3-0.1-0.4-0.3c-0.1-0.2-0.2-0.5-0.2-0.8C152.9,50.9,152.9,50.4,152.9,50    C152.9,50,152.9,50,152.9,50z"/>
		<path d="M152.4,45.2c0-0.1,0-0.2,0.1-0.3c0.1-0.2,0.3-0.3,0.5-0.2c0.3,0.2,0.5,0.6,0.5,0.9c0,0.2-0.1,0.3-0.4,0.3    C152.7,46.1,152.4,45.7,152.4,45.2z"/>
		<path d="M161.1,44.7c0.1,0.1,0.2,0.2,0.3,0.3c0.1,0.1,0.2,0.3,0.2,0.5c0,0.1,0,0.3,0,0.4c-0.1,0.1-0.3,0.1-0.4,0.1    c-0.3-0.1-0.5-0.3-0.6-0.6C160.5,45.2,160.8,44.7,161.1,44.7z"/>
	</g>
</g>
</svg>