<?xml version="1.0" encoding="UTF-8"?>
<svg width="234px" height="34px" viewBox="0 0 234 34" version="1.1" xmlns="http://www.w3.org/2000/svg" xmlns:xlink="http://www.w3.org/1999/xlink">
    <g id="Amazone" stroke="none" stroke-width="1" fill="none" fill-rule="evenodd">
        <g id="Home-1440" transform="translate(-603.000000, -1051.000000)">
            <g id="Logo" transform="translate(604.000000, 1052.000000)">
                <path d="M1.10240594,0.341314286 L30.7705743,0.341314286 C31.1940396,0.341314286 31.538396,0.690171429 31.538396,1.11917143 L31.538396,31.1751 C31.538396,31.6017429 31.1940396,31.9506 30.7705743,31.9506 L1.10240594,31.9506 C0.681267327,31.9506 0.336910891,31.6017429 0.336910891,31.1751 L0.336910891,1.11917143 C0.336910891,0.690171429 0.681267327,0.341314286 1.10240594,0.341314286 Z" id="Brandbox" stroke="#FEFEFE"></path>
                <path d="M18.5233515,5.88083571 C18.7420644,6.50312143 18.8328069,6.89205 18.8700347,7.56619286 L17.5833515,7.56619286 L17.5833515,4.34162143 C17.5833515,4.34162143 18.2674109,5.15483571 18.5233515,5.88083571 M18.5210248,9.72769286 C18.2627574,10.4513357 18.0440446,10.8426214 17.5833515,11.4059786 L17.5833515,8.18140714 L18.858401,8.18140714 C18.8025594,8.80133571 18.7234505,9.15255 18.5210248,9.72769286 M24.5379554,17.0678357 L24.5379554,10.4819786 L27.3114208,10.4819786 L27.3114208,7.10890714 L20.6802327,7.10890714 L20.6802327,13.7206929 L18.5675594,13.7206929 L18.5675594,12.9451929 L15.3985495,12.9451929 L15.3985495,9.92097857 L15.873203,9.41183571 L14.8168663,8.18140714 L16.9830545,8.18140714 L16.9830545,12.8909786 C16.9830545,12.8909786 18.293005,11.6864786 18.8072129,10.6964786 C19.2772129,9.79133571 19.4517178,9.19969286 19.5447871,8.18140714 L19.703005,8.18140714 L20.6802327,7.56619286 L19.5447871,7.56619286 C19.4819653,6.66105 19.3493416,6.13776429 18.9817178,5.31276429 C18.4651832,4.16483571 16.9830545,2.78826429 16.9830545,2.78826429 L16.9830545,7.56619286 L14.498104,7.56619286 L14.498104,7.10890714 L14.9215693,7.10890714 L15.3450347,6.68226429 L15.3450347,5.23733571 L14.9215693,4.78240714 L13.3626584,4.78240714 L12.6762723,5.45183571 L12.6762723,7.10890714 L13.2835495,7.10890714 L13.2835495,7.56619286 L11.0917673,7.56619286 L11.0917673,8.18140714 L13.2835495,8.18140714 L13.2835495,13.7206929 L4.80260891,13.7206929 L4.80260891,19.3141929 L7.5504802,19.3141929 L7.5504802,14.8733357 L8.60681683,14.8733357 L8.60681683,20.09205 L4.80260891,20.09205 L4.80260891,24.8817643 L2.92726238,24.8817643 L2.92726238,27.1328357 L7.5504802,27.1328357 L7.5504802,23.1987643 L12.3063218,23.1987643 L12.3063218,19.8516214 L17.273896,19.8516214 L17.273896,20.52105 L19.5703812,20.52105 L19.1213218,19.8516214 L21.2363218,19.8516214 L21.2363218,20.52105 L25.9898366,20.52105 L25.9898366,24.4551214 L24.088896,24.4551214 L24.088896,26.5694786 L28.1839455,26.5694786 L28.1839455,17.0678357 L24.5379554,17.0678357" id="Brand" fill="#FFFFFF"></path>
                <path d="M114.487347,18.31005 L111.474228,12.1979786 L108.230762,18.31005 L114.487347,18.31005 Z M109.615168,7.87969286 L119.454921,7.87969286 L127.461208,24.0072643 L117.256158,24.0072643 L116.260317,22.0084071 L106.301901,22.0084071 L105.236257,24.0072643 L100.950416,24.0072643 L109.615168,7.87969286 Z M91.3130891,14.8167643 L86.0965545,24.0072643 L79.3606634,24.0072643 L73.9184356,15.0241929 L73.9184356,24.0072643 L69.6558614,24.0072643 L69.6558614,7.87969286 L80.3146238,7.87969286 L85.6661089,16.8391929 L90.8128416,7.87969286 L100.338485,7.87969286 L100.338485,24.0072643 L91.3130891,24.0072643 L91.3130891,14.8167643 Z M56.1398713,18.31005 L53.1244257,12.1979786 L49.8809604,18.31005 L56.1398713,18.31005 Z M51.2630396,7.87969286 L61.1074455,7.87969286 L69.1114059,24.0072643 L58.9063564,24.0072643 L57.9081881,22.0084071 L47.9544257,22.0084071 L46.8887822,24.0072643 L42.6029406,24.0072643 L51.2630396,7.87969286 Z M232.594158,7.88016429 L232.594158,11.6940214 L219.075842,11.6940214 L219.075842,13.9898786 L232.594158,13.9898786 L232.594158,17.6882357 L219.075842,17.6882357 L219.075842,20.21745 L232.682574,20.21745 L232.682574,24.0053786 L209.936436,24.0053786 L209.936436,7.88016429 L232.594158,7.88016429 Z M178.804752,7.88016429 L186.46901,7.88016429 L197.897921,15.7836643 L197.897921,7.88016429 L206.90005,7.88016429 L206.90005,24.0053786 L194.247277,24.0053786 L183.041733,16.24095 L183.041733,24.0053786 L178.804752,24.0053786 L178.804752,7.88016429 Z M165.763416,20.1915214 C166.559158,20.1915214 167.189703,19.5503786 167.189703,18.7465929 L167.189703,13.0493786 C167.189703,12.2455929 166.559158,11.6020929 165.763416,11.6020929 L163.266832,11.6020929 C162.473416,11.6020929 161.842871,12.2455929 161.842871,13.0493786 L161.842871,18.7465929 C161.842871,19.5503786 162.473416,20.1915214 163.266832,20.1915214 L165.763416,20.1915214 Z M176.215099,11.0505214 L176.215099,20.8373786 C176.215099,22.5816643 174.812079,24.0053786 173.08797,24.0053786 L155.944604,24.0053786 C154.220495,24.0053786 152.812822,22.5816643 152.812822,20.8373786 L152.812822,11.0505214 C152.812822,9.30387857 154.220495,7.88016429 155.944604,7.88016429 L173.08797,7.88016429 C174.812079,7.88016429 176.215099,9.30387857 176.215099,11.0505214 Z M128.028465,20.1703071 L138.031089,11.6256643 L128.549653,11.6256643 L128.549653,7.88016429 L150.842079,7.88016429 L150.842079,11.78595 L141.023267,20.21745 L151.137574,20.21745 L151.137574,24.0053786 L128.028465,24.0053786 L128.028465,20.1703071 Z" id="LogoType" fill="#FFFFFF"></path>
            </g>
        </g>
    </g>
</svg>
